# xmcd
#
# Track frame offsets:
# 150
# 16565
# 30622
# 43097
# 62977
# 94525
# 111635
# 128397
# 150327
# 167112
# 190820
# 208960
# 221445
#
# Disc length: 3146 seconds
#
#
# Revision: 1
# Processed by: cddbd v1.5.2PL0 Copyright (c) Steve Scherf et al.
# Submitted via: FreeRIP 2.951 
#
DISCID=aa0c480d
DTITLE=Grant and Forsyth - Country Love
DYEAR=1999
DGENRE=Country
TTITLE0=To Know You Is To Love You
TTITLE1=Only A Fool
TTITLE2=Love Letters
TTITLE3=Do That To Me One More Time
TTITLE4=Medley
TTITLE5=I Am, I Said
TTITLE6=Torn Between Two Lovers
TTITLE7=I'll Still Be Loving You
TTITLE8=Love On The Rocks
TTITLE9=Slow Medley
TTITLE10=All Out Of Love
TTITLE11=Before The Next Teardrop Falls
TTITLE12=Sometimes When We Touch
EXTD=Dino Music\nDNCD 99660
EXTT0=
EXTT1=
EXTT2=
EXTT3=
EXTT4=
EXTT5=
EXTT6=
EXTT7=
EXTT8=
EXTT9=
EXTT10=
EXTT11=
EXTT12=
PLAYORDER=
